<svg width="325" height="55" viewBox="0 0 325 55" fill="none" xmlns="http://www.w3.org/2000/svg">
<rect width="325" height="55" rx="18" fill="#9DD558"/>
<path d="M108.249 27.1818C108.249 23.4205 105.953 21.2045 102.902 21.2045C99.8452 21.2045 97.5554 23.4205 97.5554 27.1818C97.5554 30.9375 99.8452 33.1591 102.902 33.1591C105.953 33.1591 108.249 30.9432 108.249 27.1818ZM106.129 27.1818C106.129 29.8295 104.8 31.267 102.902 31.267C101.01 31.267 99.6747 29.8295 99.6747 27.1818C99.6747 24.5341 101.01 23.0966 102.902 23.0966C104.8 23.0966 106.129 24.5341 106.129 27.1818ZM114.111 35.9659H116.173V33.1705C118.741 33.1705 120.509 31.3523 120.509 28.6705C120.509 25.983 118.741 24.1591 116.173 24.1591V21.3636H114.111V24.1591C111.543 24.1591 109.776 25.983 109.776 28.6705C109.776 31.3523 111.543 33.1705 114.111 33.1705V35.9659ZM114.111 31.5114C112.656 31.5114 111.878 30.2273 111.878 28.6705C111.878 27.1136 112.645 25.8182 114.111 25.8182V31.5114ZM116.173 31.5114V25.8182C117.639 25.8182 118.401 27.1136 118.401 28.6705C118.401 30.2273 117.639 31.5114 116.173 31.5114ZM126.051 33.1705C128.608 33.1705 130.233 31.3693 130.233 28.6705C130.233 25.9659 128.608 24.1591 126.051 24.1591C123.494 24.1591 121.869 25.9659 121.869 28.6705C121.869 31.3693 123.494 33.1705 126.051 33.1705ZM126.062 31.5227C124.648 31.5227 123.955 30.2614 123.955 28.6648C123.955 27.0682 124.648 25.7898 126.062 25.7898C127.455 25.7898 128.148 27.0682 128.148 28.6648C128.148 30.2614 127.455 31.5227 126.062 31.5227ZM131.979 36.2727H134.036V31.625H134.121C134.445 32.2614 135.121 33.1534 136.621 33.1534C138.678 33.1534 140.217 31.5227 140.217 28.6477C140.217 25.7386 138.632 24.1591 136.615 24.1591C135.075 24.1591 134.433 25.0852 134.121 25.7159H134.001V24.2727H131.979V36.2727ZM133.996 28.6364C133.996 26.9432 134.723 25.8466 136.047 25.8466C137.416 25.8466 138.121 27.0114 138.121 28.6364C138.121 30.2727 137.405 31.4659 136.047 31.4659C134.734 31.4659 133.996 30.3295 133.996 28.6364ZM147.001 30.608L144.479 24.2727H141.979V33H143.962V27.1193L146.286 33H147.723L150.126 27.0568V33H152.092V24.2727H149.592L147.001 30.608ZM156.149 30.2159V24.2727H154.166V33H156.286L159.768 27.0511V33H161.757V24.2727H159.643L156.149 30.2159ZM162.892 25.9602H165.716V33H167.705V25.9602H170.528V24.2727H162.892V25.9602ZM174.149 27.1136V24.2727H172.166V33H176.132C178.354 33 179.632 31.7727 179.638 30.0568C179.632 28.2955 178.354 27.1136 176.132 27.1136H174.149ZM174.149 28.8011H176.132C177.024 28.8011 177.666 29.3295 177.666 30.0852C177.666 30.8068 177.024 31.3125 176.132 31.3125H174.149V28.8011ZM184.886 30.608C184.938 32.2273 186.42 33.1705 188.438 33.1705C190.506 33.1705 192 32.1875 192 30.5795C192 29.4034 191.199 28.5966 190.165 28.5341V28.4432C191.165 28.1761 191.801 27.5511 191.801 26.608C191.801 25.1364 190.528 24.1591 188.483 24.1591C186.574 24.1591 185.136 25.1477 185.108 26.6705H187.136C187.159 26.0852 187.761 25.6761 188.58 25.6761C189.398 25.6761 189.892 26.1136 189.892 26.7614C189.892 27.358 189.438 27.8011 188.585 27.8011H187.25V29.2614H188.585C189.443 29.2614 190.006 29.7443 190.006 30.4489C190.006 31.2443 189.307 31.6307 188.426 31.6307C187.557 31.6307 186.966 31.2557 186.926 30.608H184.886ZM196.131 33.1761C197.5 33.1761 198.318 32.5341 198.693 31.8011H198.761V33H200.739V27.1591C200.739 24.8523 198.858 24.1591 197.193 24.1591C195.358 24.1591 193.949 24.9773 193.494 26.5682L195.415 26.8409C195.619 26.2443 196.199 25.733 197.205 25.733C198.159 25.733 198.682 26.2216 198.682 27.0795V27.1136C198.682 27.7045 198.062 27.733 196.523 27.8977C194.83 28.0795 193.21 28.5852 193.21 30.5511C193.21 32.267 194.466 33.1761 196.131 33.1761ZM196.665 31.6648C195.807 31.6648 195.193 31.2727 195.193 30.517C195.193 29.7273 195.881 29.3977 196.801 29.267C197.341 29.1932 198.42 29.0568 198.688 28.8409V29.8693C198.688 30.8409 197.903 31.6648 196.665 31.6648ZM202.807 33H204.864V29.7102H205.869L208.261 33H210.75L207.483 28.5568L210.716 24.2727H208.239L205.614 27.7955H204.864V24.2727H202.807V33ZM214.428 33.1761C215.797 33.1761 216.615 32.5341 216.99 31.8011H217.058V33H219.036V27.1591C219.036 24.8523 217.155 24.1591 215.49 24.1591C213.655 24.1591 212.246 24.9773 211.791 26.5682L213.712 26.8409C213.916 26.2443 214.496 25.733 215.501 25.733C216.456 25.733 216.979 26.2216 216.979 27.0795V27.1136C216.979 27.7045 216.359 27.733 214.82 27.8977C213.126 28.0795 211.507 28.5852 211.507 30.5511C211.507 32.267 212.763 33.1761 214.428 33.1761ZM214.962 31.6648C214.104 31.6648 213.49 31.2727 213.49 30.517C213.49 29.7273 214.178 29.3977 215.098 29.267C215.638 29.1932 216.717 29.0568 216.984 28.8409V29.8693C216.984 30.8409 216.2 31.6648 214.962 31.6648ZM220.621 30.608C220.672 32.2273 222.155 33.1705 224.172 33.1705C226.24 33.1705 227.734 32.1875 227.734 30.5795C227.734 29.4034 226.933 28.5966 225.899 28.5341V28.4432C226.899 28.1761 227.536 27.5511 227.536 26.608C227.536 25.1364 226.263 24.1591 224.217 24.1591C222.308 24.1591 220.871 25.1477 220.842 26.6705H222.871C222.893 26.0852 223.496 25.6761 224.314 25.6761C225.132 25.6761 225.626 26.1136 225.626 26.7614C225.626 27.358 225.172 27.8011 224.32 27.8011H222.984V29.2614H224.32C225.178 29.2614 225.74 29.7443 225.74 30.4489C225.74 31.2443 225.041 31.6307 224.161 31.6307C223.291 31.6307 222.7 31.2557 222.661 30.608H220.621Z" fill="white"/>
<path d="M278 28H291.714" stroke="white" stroke-width="2" stroke-linecap="round" stroke-linejoin="round"/>
<path d="M285.714 22L291.714 28L285.714 34" stroke="white" stroke-width="2" stroke-linecap="round" stroke-linejoin="round"/>
</svg>
